<svg width="36" height="32" viewBox="0 0 36 32" fill="none" xmlns="http://www.w3.org/2000/svg">
<rect width="36" height="32" rx="8" fill="white"/>
<path d="M25.9 23.42C25.951 23.723 25.717 24 25.41 24H10.5901C10.2821 24 10.048 23.723 10.1 23.42L10.508 21C10.532 20.856 10.657 20.75 10.804 20.75H25.197C25.343 20.75 25.468 20.856 25.493 21L25.9 23.42ZM25.49 11.53L22.99 13.04C22.538 13.313 21.951 13.181 21.66 12.74L18.821 8.44102C18.433 7.85302 17.57 7.85201 17.18 8.44001L14.3401 12.73C14.0501 13.18 13.46 13.31 13 13.03L10.51 11.53C9.77003 11.08 8.85004 11.72 9.02004 12.57L10.467 19.016C10.498 19.153 10.619 19.25 10.76 19.25H25.24C25.38 19.25 25.502 19.153 25.533 19.016L26.98 12.57C27.15 11.72 26.23 11.08 25.49 11.53Z" fill="#FF7355"/>
</svg>
